<svg width="113" height="46" viewBox="0 0 113 46" fill="none" xmlns="http://www.w3.org/2000/svg">
<path d="M54.0376 2.81818V13H51.8849V2.81818H54.0376ZM55.769 13V5.36364H57.7875V6.71094H57.877C58.036 6.26349 58.3012 5.91051 58.6724 5.65199C59.0436 5.39347 59.4877 5.2642 60.0048 5.2642C60.5285 5.2642 60.9743 5.39512 61.3422 5.65696C61.7101 5.91548 61.9553 6.26681 62.0779 6.71094H62.1575C62.3133 6.27344 62.595 5.92377 63.0027 5.66193C63.4136 5.39678 63.8992 5.2642 64.4593 5.2642C65.1719 5.2642 65.7503 5.49124 66.1944 5.94531C66.6419 6.39607 66.8656 7.03575 66.8656 7.86435V13H64.7527V8.28196C64.7527 7.85772 64.64 7.53954 64.4146 7.32741C64.1892 7.11529 63.9075 7.00923 63.5694 7.00923C63.185 7.00923 62.885 7.13187 62.6696 7.37713C62.4541 7.61908 62.3464 7.93892 62.3464 8.33665V13H60.2931V8.23722C60.2931 7.86269 60.1854 7.56439 59.97 7.34233C59.7579 7.12026 59.4778 7.00923 59.1298 7.00923C58.8945 7.00923 58.6824 7.06889 58.4934 7.18821C58.3078 7.30421 58.1603 7.46828 58.051 7.6804C57.9416 7.8892 57.8869 8.13447 57.8869 8.41619V13H55.769ZM68.5385 13V5.36364H70.5918V6.69602H70.6713C70.8105 6.22206 71.0442 5.86411 71.3723 5.62216C71.7005 5.37689 72.0783 5.25426 72.5059 5.25426C72.6119 5.25426 72.7263 5.26089 72.8489 5.27415C72.9715 5.28741 73.0792 5.30563 73.1721 5.32883V7.2081C73.0726 7.17827 72.9351 7.15175 72.7594 7.12855C72.5837 7.10535 72.423 7.09375 72.2772 7.09375C71.9656 7.09375 71.6872 7.1617 71.4419 7.29759C71.2 7.43016 71.0078 7.61577 70.8652 7.8544C70.726 8.09304 70.6564 8.36813 70.6564 8.67969V13H68.5385ZM76.2259 13.1442C75.7386 13.1442 75.3045 13.0597 74.9233 12.8906C74.5421 12.7183 74.2405 12.4647 74.0185 12.13C73.7997 11.7919 73.6903 11.371 73.6903 10.8672C73.6903 10.4429 73.7682 10.0866 73.924 9.7983C74.0798 9.50994 74.2919 9.27794 74.5604 9.10227C74.8288 8.92661 75.1338 8.79403 75.4751 8.70455C75.8198 8.61506 76.1811 8.55208 76.5589 8.51562C77.0031 8.46922 77.361 8.42614 77.6328 8.38636C77.9046 8.34328 78.1018 8.2803 78.2244 8.19744C78.3471 8.11458 78.4084 7.99195 78.4084 7.82955V7.79972C78.4084 7.48485 78.3089 7.24124 78.1101 7.06889C77.9145 6.89654 77.6361 6.81037 77.2749 6.81037C76.8937 6.81037 76.5904 6.89489 76.3651 7.06392C76.1397 7.22964 75.9905 7.43845 75.9176 7.69034L73.9588 7.53125C74.0582 7.06723 74.2538 6.66619 74.5455 6.32812C74.8371 5.98674 75.2133 5.7249 75.674 5.54261C76.138 5.35701 76.675 5.2642 77.2848 5.2642C77.709 5.2642 78.1151 5.31392 78.5028 5.41335C78.8939 5.51278 79.2403 5.6669 79.5419 5.87571C79.8468 6.08452 80.0871 6.35298 80.2628 6.68111C80.4384 7.00592 80.5263 7.39536 80.5263 7.84943V13H78.5178V11.9411H78.4581C78.3355 12.1797 78.1714 12.3902 77.9659 12.5724C77.7604 12.7514 77.5135 12.8923 77.2251 12.995C76.9368 13.0945 76.6037 13.1442 76.2259 13.1442ZM76.8324 11.6825C77.1439 11.6825 77.419 11.6212 77.6577 11.4986C77.8963 11.3726 78.0836 11.2036 78.2195 10.9915C78.3554 10.7794 78.4233 10.5391 78.4233 10.2706V9.46023C78.357 9.50331 78.2659 9.54309 78.1499 9.57955C78.0372 9.61269 77.9096 9.64418 77.767 9.67401C77.6245 9.70052 77.482 9.72538 77.3395 9.74858C77.197 9.76847 77.0677 9.78669 76.9517 9.80327C76.7031 9.83973 76.486 9.89773 76.3004 9.97727C76.1148 10.0568 75.9706 10.1645 75.8679 10.3004C75.7652 10.433 75.7138 10.5987 75.7138 10.7976C75.7138 11.0859 75.8182 11.3063 76.027 11.4588C76.2391 11.608 76.5076 11.6825 76.8324 11.6825ZM84.2873 8.58523V13H82.1694V5.36364H84.1879V6.71094H84.2773C84.4464 6.26681 84.7298 5.91548 85.1275 5.65696C85.5252 5.39512 86.0075 5.2642 86.5742 5.2642C87.1045 5.2642 87.5669 5.38021 87.9613 5.61222C88.3557 5.84422 88.6623 6.17566 88.881 6.60653C89.0998 7.03409 89.2092 7.54451 89.2092 8.13778V13H87.0913V8.51562C87.0946 8.0483 86.9753 7.68371 86.7333 7.42188C86.4914 7.15672 86.1583 7.02415 85.734 7.02415C85.449 7.02415 85.1971 7.08546 84.9783 7.2081C84.7629 7.33073 84.5939 7.50971 84.4712 7.74503C84.3519 7.97704 84.2906 8.2571 84.2873 8.58523ZM51.8849 17.8182H54.5398L57.3438 24.6591H57.4631L60.267 17.8182H62.9219V28H60.8338V21.3729H60.7493L58.1143 27.9503H56.6925L54.0575 21.348H53.973V28H51.8849V17.8182ZM68.1358 28.1491C67.3503 28.1491 66.6742 27.9901 66.1074 27.6719C65.544 27.3504 65.1098 26.8963 64.8049 26.3097C64.4999 25.7197 64.3475 25.022 64.3475 24.2166C64.3475 23.4311 64.4999 22.7417 64.8049 22.1484C65.1098 21.5552 65.539 21.0928 66.0925 20.7614C66.6493 20.4299 67.3023 20.2642 68.0513 20.2642C68.5551 20.2642 69.0241 20.3454 69.4583 20.5078C69.8958 20.6669 70.2769 20.9072 70.6017 21.2287C70.9299 21.5502 71.1851 21.9545 71.3674 22.4418C71.5497 22.9257 71.6408 23.4924 71.6408 24.142V24.7237H65.1926V23.4112H69.6472C69.6472 23.1063 69.5809 22.8362 69.4483 22.6009C69.3158 22.3655 69.1318 22.1816 68.8965 22.049C68.6645 21.9131 68.3944 21.8452 68.0861 21.8452C67.7646 21.8452 67.4796 21.9197 67.231 22.0689C66.9857 22.2147 66.7935 22.4119 66.6543 22.6605C66.5151 22.9058 66.4438 23.1792 66.4405 23.4808V24.7287C66.4405 25.1065 66.5101 25.433 66.6493 25.7081C66.7918 25.9832 66.9924 26.1953 67.2509 26.3445C67.5094 26.4936 67.816 26.5682 68.1706 26.5682C68.406 26.5682 68.6214 26.535 68.8169 26.4688C69.0125 26.4025 69.1799 26.303 69.3191 26.1705C69.4583 26.0379 69.5643 25.8755 69.6373 25.6832L71.5961 25.8125C71.4966 26.2831 71.2928 26.6941 70.9846 27.0455C70.6796 27.3935 70.2852 27.6652 69.8013 27.8608C69.3207 28.053 68.7656 28.1491 68.1358 28.1491ZM75.8368 28.1243C75.2568 28.1243 74.7315 27.9751 74.2608 27.6768C73.7935 27.3752 73.4223 26.9328 73.1472 26.3494C72.8754 25.7628 72.7395 25.0436 72.7395 24.1918C72.7395 23.3168 72.8804 22.5893 73.1621 22.0092C73.4438 21.4259 73.8184 20.9901 74.2857 20.7017C74.7563 20.41 75.2717 20.2642 75.8319 20.2642C76.2594 20.2642 76.6157 20.3371 76.9007 20.483C77.1891 20.6255 77.4211 20.8045 77.5968 21.0199C77.7757 21.232 77.9116 21.4408 78.0044 21.6463H78.0691V17.8182H80.182V28H78.0939V26.777H78.0044C77.905 26.9891 77.7641 27.1996 77.5819 27.4084C77.4029 27.6139 77.1692 27.7846 76.8809 27.9205C76.5958 28.0563 76.2478 28.1243 75.8368 28.1243ZM76.508 26.4389C76.8494 26.4389 77.1377 26.3461 77.373 26.1605C77.6117 25.9716 77.794 25.7081 77.9199 25.37C78.0492 25.032 78.1138 24.6359 78.1138 24.1818C78.1138 23.7277 78.0508 23.3333 77.9249 22.9986C77.7989 22.6638 77.6167 22.4053 77.378 22.223C77.1394 22.0407 76.8494 21.9496 76.508 21.9496C76.16 21.9496 75.8667 22.044 75.628 22.233C75.3894 22.4219 75.2087 22.6837 75.0861 23.0185C74.9635 23.3532 74.9022 23.741 74.9022 24.1818C74.9022 24.6259 74.9635 25.0187 75.0861 25.3601C75.2121 25.6982 75.3927 25.9633 75.628 26.1555C75.8667 26.3445 76.16 26.4389 76.508 26.4389ZM81.9233 28V20.3636H84.0412V28H81.9233ZM82.9872 19.3793C82.6723 19.3793 82.4022 19.2749 82.1768 19.0661C81.9548 18.8539 81.8438 18.6004 81.8438 18.3054C81.8438 18.0137 81.9548 17.7635 82.1768 17.5547C82.4022 17.3426 82.6723 17.2365 82.9872 17.2365C83.3021 17.2365 83.5705 17.3426 83.7926 17.5547C84.018 17.7635 84.1307 18.0137 84.1307 18.3054C84.1307 18.6004 84.018 18.8539 83.7926 19.0661C83.5705 19.2749 83.3021 19.3793 82.9872 19.3793ZM89.188 28.1491C88.4058 28.1491 87.733 27.9834 87.1696 27.652C86.6094 27.3172 86.1786 26.8532 85.877 26.2599C85.5787 25.6667 85.4295 24.9839 85.4295 24.2116C85.4295 23.4295 85.5803 22.7434 85.8819 22.1534C86.1868 21.5601 86.6194 21.0978 87.1795 20.7663C87.7396 20.4316 88.4058 20.2642 89.1781 20.2642C89.8443 20.2642 90.4276 20.3852 90.9281 20.6271C91.4286 20.8691 91.8246 21.2088 92.1163 21.6463C92.408 22.0838 92.5687 22.5975 92.5985 23.1875H90.6C90.5436 22.8063 90.3945 22.4998 90.1525 22.2678C89.9139 22.0324 89.6007 21.9148 89.2129 21.9148C88.8848 21.9148 88.5981 22.0043 88.3528 22.1832C88.1109 22.3589 87.9219 22.6158 87.786 22.9538C87.6502 23.2919 87.5822 23.7012 87.5822 24.1818C87.5822 24.669 87.6485 25.0833 87.7811 25.4247C87.917 25.7661 88.1075 26.0263 88.3528 26.2053C88.5981 26.3842 88.8848 26.4737 89.2129 26.4737C89.4548 26.4737 89.6719 26.424 89.8642 26.3246C90.0597 26.2251 90.2205 26.081 90.3464 25.892C90.4757 25.6998 90.5602 25.4695 90.6 25.201H92.5985C92.5654 25.7843 92.4063 26.2981 92.1213 26.7422C91.8395 27.183 91.4501 27.5277 90.9529 27.7763C90.4558 28.0249 89.8675 28.1491 89.188 28.1491ZM96.1321 28.1442C95.6449 28.1442 95.2107 28.0597 94.8295 27.8906C94.4484 27.7183 94.1468 27.4647 93.9247 27.13C93.706 26.7919 93.5966 26.371 93.5966 25.8672C93.5966 25.4429 93.6745 25.0866 93.8303 24.7983C93.986 24.5099 94.1982 24.2779 94.4666 24.1023C94.7351 23.9266 95.04 23.794 95.3814 23.7045C95.7261 23.6151 96.0874 23.5521 96.4652 23.5156C96.9093 23.4692 97.2673 23.4261 97.5391 23.3864C97.8108 23.3433 98.008 23.2803 98.1307 23.1974C98.2533 23.1146 98.3146 22.992 98.3146 22.8295V22.7997C98.3146 22.4848 98.2152 22.2412 98.0163 22.0689C97.8208 21.8965 97.5424 21.8104 97.1811 21.8104C96.8 21.8104 96.4967 21.8949 96.2713 22.0639C96.0459 22.2296 95.8968 22.4384 95.8239 22.6903L93.8651 22.5312C93.9645 22.0672 94.16 21.6662 94.4517 21.3281C94.7434 20.9867 95.1196 20.7249 95.5803 20.5426C96.0443 20.357 96.5812 20.2642 97.1911 20.2642C97.6153 20.2642 98.0213 20.3139 98.4091 20.4134C98.8002 20.5128 99.1465 20.6669 99.4482 20.8757C99.7531 21.0845 99.9934 21.353 100.169 21.6811C100.345 22.0059 100.433 22.3954 100.433 22.8494V28H98.424V26.9411H98.3643C98.2417 27.1797 98.0777 27.3902 97.8722 27.5724C97.6667 27.7514 97.4197 27.8923 97.1314 27.995C96.843 28.0945 96.5099 28.1442 96.1321 28.1442ZM96.7386 26.6825C97.0502 26.6825 97.3253 26.6212 97.5639 26.4986C97.8026 26.3726 97.9898 26.2036 98.1257 25.9915C98.2616 25.7794 98.3295 25.5391 98.3295 25.2706V24.4602C98.2633 24.5033 98.1721 24.5431 98.0561 24.5795C97.9434 24.6127 97.8158 24.6442 97.6733 24.674C97.5308 24.7005 97.3883 24.7254 97.2457 24.7486C97.1032 24.7685 96.974 24.7867 96.858 24.8033C96.6094 24.8397 96.3923 24.8977 96.2067 24.9773C96.0211 25.0568 95.8769 25.1645 95.7741 25.3004C95.6714 25.433 95.62 25.5987 95.62 25.7976C95.62 26.0859 95.7244 26.3063 95.9332 26.4588C96.1454 26.608 96.4138 26.6825 96.7386 26.6825ZM104.194 17.8182V28H102.076V17.8182H104.194ZM60.8686 36.3828H58.6911C58.6513 36.1011 58.5701 35.8509 58.4474 35.6321C58.3248 35.41 58.1674 35.2211 57.9751 35.0653C57.7829 34.9096 57.5608 34.7902 57.3089 34.7074C57.0604 34.6245 56.7902 34.5831 56.4986 34.5831C55.9716 34.5831 55.5125 34.714 55.1214 34.9759C54.7304 35.2344 54.4271 35.6122 54.2116 36.1094C53.9962 36.6032 53.8885 37.2031 53.8885 37.9091C53.8885 38.6349 53.9962 39.2448 54.2116 39.7386C54.4304 40.2325 54.7353 40.6054 55.1264 40.8572C55.5175 41.1091 55.9699 41.2351 56.4837 41.2351C56.772 41.2351 57.0388 41.197 57.2841 41.1207C57.5327 41.0445 57.7531 40.9335 57.9453 40.7876C58.1375 40.6385 58.2966 40.4579 58.4226 40.2457C58.5518 40.0336 58.6413 39.7917 58.6911 39.5199L60.8686 39.5298C60.8123 39.9972 60.6714 40.4479 60.446 40.8821C60.224 41.313 59.924 41.6991 59.5462 42.0405C59.1716 42.3786 58.7242 42.647 58.2038 42.8459C57.6868 43.0414 57.1018 43.1392 56.4489 43.1392C55.5407 43.1392 54.7287 42.9337 54.0128 42.5227C53.3002 42.1117 52.7367 41.5168 52.3224 40.7379C51.9115 39.959 51.706 39.0161 51.706 37.9091C51.706 36.7988 51.9148 35.8542 52.3324 35.0753C52.75 34.2964 53.3168 33.7031 54.0327 33.2955C54.7486 32.8845 55.554 32.679 56.4489 32.679C57.0388 32.679 57.5857 32.7618 58.0895 32.9276C58.5966 33.0933 59.0457 33.3352 59.4368 33.6534C59.8279 33.9683 60.1461 34.3544 60.3913 34.8118C60.6399 35.2692 60.799 35.7929 60.8686 36.3828ZM65.8526 43.1491C65.0671 43.1491 64.391 42.9901 63.8242 42.6719C63.2608 42.3504 62.8266 41.8963 62.5217 41.3097C62.2167 40.7197 62.0643 40.022 62.0643 39.2166C62.0643 38.4311 62.2167 37.7417 62.5217 37.1484C62.8266 36.5552 63.2558 36.0928 63.8093 35.7614C64.3661 35.4299 65.0191 35.2642 65.7681 35.2642C66.2719 35.2642 66.7409 35.3454 67.1751 35.5078C67.6126 35.6669 67.9937 35.9072 68.3185 36.2287C68.6467 36.5502 68.9019 36.9545 69.0842 37.4418C69.2665 37.9257 69.3576 38.4924 69.3576 39.142V39.7237H62.9094V38.4112H67.364C67.364 38.1063 67.2977 37.8362 67.1651 37.6009C67.0326 37.3655 66.8486 37.1816 66.6133 37.049C66.3813 36.9131 66.1112 36.8452 65.8029 36.8452C65.4814 36.8452 65.1964 36.9197 64.9478 37.0689C64.7025 37.2147 64.5103 37.4119 64.3711 37.6605C64.2319 37.9058 64.1606 38.1792 64.1573 38.4808V39.7287C64.1573 40.1065 64.2269 40.433 64.3661 40.7081C64.5086 40.9832 64.7092 41.1953 64.9677 41.3445C65.2262 41.4936 65.5328 41.5682 65.8874 41.5682C66.1228 41.5682 66.3382 41.535 66.5337 41.4688C66.7293 41.4025 66.8967 41.303 67.0359 41.1705C67.1751 41.0379 67.2811 40.8755 67.354 40.6832L69.3129 40.8125C69.2134 41.2831 69.0096 41.6941 68.7013 42.0455C68.3964 42.3935 68.002 42.6652 67.5181 42.8608C67.0375 43.053 66.4824 43.1491 65.8526 43.1491ZM72.8576 38.5852V43H70.7397V35.3636H72.7582V36.7109H72.8477C73.0167 36.2668 73.3001 35.9155 73.6978 35.657C74.0955 35.3951 74.5778 35.2642 75.1445 35.2642C75.6748 35.2642 76.1372 35.3802 76.5316 35.6122C76.926 35.8442 77.2326 36.1757 77.4513 36.6065C77.6701 37.0341 77.7795 37.5445 77.7795 38.1378V43H75.6616V38.5156C75.6649 38.0483 75.5456 37.6837 75.3036 37.4219C75.0617 37.1567 74.7286 37.0241 74.3043 37.0241C74.0193 37.0241 73.7674 37.0855 73.5487 37.2081C73.3332 37.3307 73.1642 37.5097 73.0415 37.745C72.9222 37.977 72.8609 38.2571 72.8576 38.5852ZM83.5105 35.3636V36.9545H78.9118V35.3636H83.5105ZM79.9558 33.5341H82.0737V40.6534C82.0737 40.849 82.1035 41.0014 82.1632 41.1108C82.2228 41.2169 82.3057 41.2914 82.4118 41.3345C82.5211 41.3776 82.6471 41.3991 82.7896 41.3991C82.889 41.3991 82.9885 41.3909 83.0879 41.3743C83.1873 41.3544 83.2636 41.3395 83.3166 41.3295L83.6497 42.9055C83.5436 42.9387 83.3945 42.9768 83.2022 43.0199C83.01 43.0663 82.7763 43.0945 82.5012 43.1044C81.9908 43.1243 81.5434 43.0563 81.1589 42.9006C80.7778 42.7448 80.4811 42.5028 80.269 42.1747C80.0569 41.8466 79.9525 41.4323 79.9558 40.9318V33.5341ZM88.2882 43.1491C87.5027 43.1491 86.8265 42.9901 86.2598 42.6719C85.6963 42.3504 85.2621 41.8963 84.9572 41.3097C84.6523 40.7197 84.4998 40.022 84.4998 39.2166C84.4998 38.4311 84.6523 37.7417 84.9572 37.1484C85.2621 36.5552 85.6913 36.0928 86.2449 35.7614C86.8017 35.4299 87.4546 35.2642 88.2037 35.2642C88.7074 35.2642 89.1764 35.3454 89.6106 35.5078C90.0481 35.6669 90.4293 35.9072 90.7541 36.2287C91.0822 36.5502 91.3374 36.9545 91.5197 37.4418C91.702 37.9257 91.7931 38.4924 91.7931 39.142V39.7237H85.345V38.4112H89.7995C89.7995 38.1063 89.7333 37.8362 89.6007 37.6009C89.4681 37.3655 89.2842 37.1816 89.0488 37.049C88.8168 36.9131 88.5467 36.8452 88.2385 36.8452C87.917 36.8452 87.6319 36.9197 87.3833 37.0689C87.1381 37.2147 86.9458 37.4119 86.8066 37.6605C86.6674 37.9058 86.5962 38.1792 86.5929 38.4808V39.7287C86.5929 40.1065 86.6625 40.433 86.8017 40.7081C86.9442 40.9832 87.1447 41.1953 87.4032 41.3445C87.6618 41.4936 87.9683 41.5682 88.323 41.5682C88.5583 41.5682 88.7737 41.535 88.9693 41.4688C89.1648 41.4025 89.3322 41.303 89.4714 41.1705C89.6106 41.0379 89.7167 40.8755 89.7896 40.6832L91.7484 40.8125C91.649 41.2831 91.4451 41.6941 91.1369 42.0455C90.832 42.3935 90.4376 42.6652 89.9537 42.8608C89.4731 43.053 88.9179 43.1491 88.2882 43.1491ZM93.1752 43V35.3636H95.2285V36.696H95.3081C95.4473 36.2221 95.6809 35.8641 96.0091 35.6222C96.3372 35.3769 96.715 35.2543 97.1426 35.2543C97.2486 35.2543 97.363 35.2609 97.4856 35.2741C97.6083 35.2874 97.716 35.3056 97.8088 35.3288V37.2081C97.7093 37.1783 97.5718 37.1518 97.3961 37.1286C97.2205 37.1054 97.0597 37.0938 96.9139 37.0938C96.6023 37.0938 96.3239 37.1617 96.0787 37.2976C95.8367 37.4302 95.6445 37.6158 95.502 37.8544C95.3627 38.093 95.2931 38.3681 95.2931 38.6797V43H93.1752Z" fill="white"/>
<path d="M28.7497 3.85828H17.2497V17.25H3.83301V28.75H17.2497V42.1418H28.7497V28.75H42.1663V17.25H28.7497V3.85828Z" fill="white"/>
</svg>
